<?xml version="1.0" standalone="no"?>
<!DOCTYPE svg PUBLIC "-//W3C//DTD SVG 20010904//EN"
 "http://www.w3.org/TR/2001/REC-SVG-20010904/DTD/svg10.dtd">
<svg version="1.0" xmlns="http://www.w3.org/2000/svg"
 width="600.000000pt" height="600.000000pt" viewBox="0 0 600.000000 600.000000"
 preserveAspectRatio="xMidYMid meet">
<metadata>
Created by potrace 1.14, written by Peter Selinger 2001-2017
</metadata>
<g transform="translate(0.000000,600.000000) scale(0.100000,-0.100000)"
fill="#000000" stroke="none">
<path d="M2919 5895 c-13 -25 -28 -45 -32 -45 -5 0 -6 -4 -2 -9 3 -5 -2 -16
-10 -25 -9 -8 -16 -19 -17 -23 -2 -21 -19 -53 -28 -53 -5 0 -9 -3 -8 -7 2 -8
-3 -19 -75 -153 -69 -131 -99 -185 -110 -197 -5 -7 -6 -13 -3 -13 4 0 0 -7 -8
-16 -9 -8 -14 -20 -11 -25 4 -5 2 -9 -3 -9 -5 0 -17 -18 -27 -41 -16 -34 -22
-39 -42 -34 -13 3 -36 19 -52 35 -15 17 -31 30 -35 30 -6 0 -49 35 -82 68 -7
6 -15 12 -19 12 -4 0 -12 6 -20 13 -7 6 -21 19 -31 27 -11 8 -54 43 -96 78
-42 34 -79 62 -82 62 -2 0 -20 14 -38 30 -18 17 -47 39 -65 50 l-32 19 -20
-25 c-22 -28 -26 -12 92 -374 35 -107 83 -256 106 -330 24 -74 46 -142 50
-150 4 -8 16 -45 27 -82 10 -38 22 -68 27 -68 4 0 5 -4 2 -10 -3 -5 -1 -18 4
-29 10 -18 23 -19 272 -18 l261 2 17 68 c10 37 16 67 14 67 -2 0 3 14 12 30 9
17 13 30 10 30 -3 0 1 14 10 30 9 17 13 30 9 30 -3 0 1 11 10 25 9 14 14 25
12 25 -6 0 74 154 106 205 14 22 26 43 26 48 1 4 14 19 28 32 15 14 24 25 21
25 -7 0 9 21 62 82 18 21 31 38 28 38 -3 0 19 24 48 53 l53 53 -21 39 c-11 22
-25 43 -31 47 -6 4 -7 8 -3 8 5 0 -1 14 -13 30 -12 17 -18 30 -13 30 4 0 4 4
-2 8 -5 4 -23 34 -40 67 -16 33 -33 62 -37 63 -5 2 -8 8 -8 14 0 5 -9 22 -19
36 -10 15 -19 30 -20 35 0 4 -17 37 -36 72 -31 56 -41 65 -64 65 -23 0 -33 -8
-52 -45z"/>
<path d="M4006 5642 c-2 -1 -12 -4 -22 -6 -64 -13 -141 -36 -199 -61 -16 -8
-37 -15 -45 -17 -8 -2 -17 -5 -20 -8 -3 -3 -18 -11 -34 -18 -16 -7 -61 -32
-99 -55 -38 -23 -77 -47 -87 -52 -58 -34 -270 -234 -270 -255 0 -5 -7 -10 -16
-10 -8 0 -13 -4 -9 -9 3 -5 -2 -16 -10 -24 -8 -9 -15 -21 -15 -27 0 -6 -4 -9
-9 -5 -5 3 -15 -10 -22 -30 -7 -19 -15 -33 -17 -30 -3 2 -16 -19 -31 -48 -14
-29 -29 -54 -32 -57 -3 -3 -19 -39 -36 -80 -66 -162 -86 -261 -87 -430 l-1
-105 95 0 c52 -1 100 1 105 4 6 3 19 7 30 9 65 12 145 36 145 44 0 4 7 8 16 8
26 0 154 71 234 131 102 75 231 203 295 293 11 16 25 33 30 40 39 43 165 284
165 315 0 5 5 22 12 38 6 15 13 37 15 48 2 11 8 36 13 55 12 46 23 137 22 178
-2 48 -2 53 1 100 2 24 -1 46 -5 48 -5 3 -6 10 -2 15 5 9 -102 10 -110 1z"/>
<path d="M4016 4313 c-6 -6 -22 -8 -104 -14 -18 -1 -35 -7 -39 -12 -3 -5 -9
-3 -14 4 -6 10 -9 11 -9 2 0 -7 -10 -13 -22 -13 -30 0 -250 -60 -265 -72 -7
-5 -17 -7 -22 -4 -5 4 -12 2 -16 -4 -3 -5 -13 -10 -21 -10 -8 0 -30 -7 -50
-15 -19 -8 -35 -14 -37 -14 -4 0 -141 -51 -162 -61 -20 -8 -68 -24 -116 -37
-53 -14 -155 -11 -209 8 -30 10 -64 20 -75 21 -11 2 -22 5 -25 8 -6 6 -126 48
-150 52 -8 2 -17 5 -20 8 -3 3 -41 18 -85 33 -71 25 -94 32 -130 40 -5 2 -16
6 -23 11 -7 4 -16 6 -18 3 -3 -3 -27 3 -55 13 -30 11 -46 14 -42 7 4 -7 -5 -4
-20 6 -15 9 -27 13 -27 8 0 -5 -15 -3 -34 3 -19 7 -81 11 -143 10 -94 -2 -142
-7 -253 -29 -14 -3 -41 -8 -60 -11 -19 -4 -41 -11 -47 -17 -7 -5 -13 -7 -13
-3 0 4 -12 0 -27 -7 -16 -8 -34 -12 -40 -10 -7 3 -13 1 -13 -5 0 -5 -19 -15
-42 -22 -24 -7 -52 -18 -63 -26 -11 -8 -27 -14 -36 -14 -10 0 -19 -4 -21 -8
-1 -4 -32 -24 -68 -44 -69 -39 -76 -44 -174 -123 -84 -68 -236 -226 -236 -245
0 -6 -4 -10 -10 -10 -5 0 -10 -6 -10 -14 0 -7 -11 -26 -25 -42 -40 -45 -46
-54 -40 -54 3 0 -5 -17 -19 -37 -14 -20 -23 -40 -20 -45 3 -4 0 -8 -5 -8 -6 0
-11 -7 -11 -15 0 -8 -4 -15 -10 -15 -5 0 -10 -6 -10 -12 0 -7 -7 -26 -15 -41
-8 -15 -16 -36 -17 -45 -2 -9 -6 -19 -10 -22 -4 -3 -20 -47 -36 -98 -15 -51
-30 -90 -33 -88 -2 2 -5 -10 -5 -27 -1 -18 -11 -77 -22 -132 -26 -127 -36
-237 -36 -400 0 -139 13 -319 29 -416 8 -51 24 -141 30 -169 3 -14 8 -41 11
-60 4 -19 11 -41 17 -47 5 -7 7 -13 4 -13 -3 0 -1 -17 4 -37 5 -21 12 -49 15
-62 3 -13 9 -32 15 -43 5 -10 7 -18 3 -18 -3 0 -1 -6 5 -13 6 -8 8 -17 4 -20
-3 -4 -1 -12 4 -19 10 -13 39 -110 35 -116 -2 -1 4 -10 13 -18 8 -9 15 -22 15
-31 0 -17 18 -60 92 -223 19 -41 41 -90 49 -107 7 -18 17 -33 21 -33 5 0 8 -7
8 -15 0 -8 12 -36 28 -62 15 -26 34 -61 42 -78 8 -16 26 -48 40 -70 14 -22 32
-53 40 -70 8 -16 26 -46 40 -65 14 -19 32 -47 39 -62 8 -15 22 -37 33 -47 10
-11 18 -23 18 -27 0 -3 13 -23 30 -44 16 -21 30 -43 30 -49 0 -6 4 -11 8 -11
5 0 23 -20 40 -43 78 -110 238 -270 342 -345 113 -81 205 -124 315 -147 104
-22 292 10 465 78 36 14 94 35 130 47 36 12 72 25 80 28 8 3 18 6 23 7 4 2 8
3 10 5 5 4 43 12 65 14 12 0 22 4 22 7 0 4 10 5 23 5 12 -1 29 1 39 6 9 4 42
10 75 12 32 3 59 5 61 6 8 5 83 2 88 -3 4 -4 14 -2 24 3 10 5 20 7 23 4 3 -3
23 -8 44 -10 21 -3 59 -9 84 -15 26 -6 55 -12 65 -14 11 -2 19 -4 19 -5 0 -1
8 -3 18 -6 9 -2 25 -6 35 -8 9 -3 17 -5 17 -6 0 -1 7 -3 15 -5 8 -2 29 -9 45
-16 17 -7 33 -12 38 -11 4 1 7 -3 7 -9 0 -5 5 -7 10 -4 6 3 10 1 10 -6 0 -7 3
-10 6 -6 3 3 28 -3 54 -13 26 -10 51 -16 54 -13 3 4 6 1 6 -6 0 -7 4 -10 9 -6
5 3 12 1 16 -5 3 -5 16 -10 29 -10 12 0 26 -4 32 -8 17 -16 183 -45 254 -45
88 0 213 30 280 66 19 11 52 28 72 39 20 11 42 26 49 34 6 8 16 14 21 14 5 0
15 6 22 13 7 6 32 28 56 47 46 38 140 130 180 176 32 38 161 205 180 234 8 12
23 33 33 45 9 13 17 26 17 29 0 4 18 33 40 65 22 32 40 64 40 70 0 6 4 11 10
11 5 0 9 3 8 8 -1 4 13 34 32 67 50 85 180 354 180 371 0 3 6 20 14 37 36 78
65 160 60 168 -3 5 -32 23 -64 39 -56 28 -121 68 -147 90 -7 5 -17 10 -23 10
-5 0 -10 5 -10 10 0 6 -5 10 -10 10 -18 0 -202 173 -255 241 -41 51 -85 118
-85 127 0 5 -7 15 -15 22 -9 7 -13 15 -11 18 3 3 -3 17 -13 31 -9 14 -28 53
-40 86 -13 33 -27 69 -33 80 -5 12 -11 30 -13 40 -2 11 -4 21 -5 23 -3 2 -3 2
-14 57 -13 58 -15 74 -21 135 -7 70 -7 199 0 210 3 5 1 11 -5 15 -6 4 -7 12
-3 18 4 7 8 30 9 52 1 22 3 40 4 40 1 0 3 11 6 25 12 75 37 176 45 185 5 5 9
15 9 22 0 7 14 43 32 80 18 38 31 71 30 76 -1 4 3 7 8 7 6 0 10 6 10 13 0 7
11 24 25 39 14 15 25 32 25 38 0 5 5 10 10 10 6 0 10 4 10 10 0 5 10 22 23 37
22 27 156 160 179 178 27 22 107 81 128 95 13 8 34 24 48 36 l25 20 -26 26
c-14 14 -24 28 -22 30 6 6 -162 176 -199 203 -15 11 -37 28 -48 38 -12 9 -27
17 -35 17 -7 0 -13 4 -13 8 0 14 -210 123 -222 116 -4 -3 -8 -1 -8 3 0 7 -63
31 -102 39 -5 1 -9 2 -10 4 -3 2 -8 3 -143 37 -11 2 -31 6 -45 8 -14 2 -25 4
-25 5 0 2 -38 6 -150 15 -44 3 -86 8 -92 10 -7 3 -13 0 -13 -5 0 -6 -9 -6 -24
0 -13 5 -27 6 -30 3z"/>
</g>
</svg>
