<?xml version="1.0" standalone="no"?>
<!DOCTYPE svg PUBLIC "-//W3C//DTD SVG 20010904//EN"
 "http://www.w3.org/TR/2001/REC-SVG-20010904/DTD/svg10.dtd">
<svg version="1.0" xmlns="http://www.w3.org/2000/svg"
 width="441.000000pt" height="363.000000pt" viewBox="0 0 441.000000 363.000000"
 preserveAspectRatio="xMidYMid meet">

<g transform="translate(0.000000,363.000000) scale(0.100000,-0.100000)"
fill="#000000" stroke="none">
<path d="M2456 3254 c-27 -8 -66 -26 -87 -40 -21 -13 -42 -24 -45 -24 -8 0
-82 -59 -130 -105 -48 -44 -136 -181 -167 -259 -43 -106 -53 -187 -35 -271 12
-52 13 -72 5 -77 -21 -13 -80 -9 -177 13 -149 33 -309 17 -444 -45 -227 -104
-386 -298 -463 -564 -20 -72 -26 -116 -30 -255 -5 -157 -7 -170 -29 -196 -12
-15 -40 -33 -61 -39 -42 -13 -176 -80 -264 -133 -80 -49 -125 -85 -202 -163
-93 -94 -122 -155 -117 -245 6 -125 95 -202 278 -240 63 -13 432 -14 582 -1
134 11 163 1 208 -73 80 -130 226 -268 352 -332 85 -43 212 -46 330 -10 13 4
52 21 120 53 84 38 180 62 256 62 29 0 114 -16 190 -35 293 -75 423 -31 617
206 76 94 170 263 230 415 46 117 54 175 32 239 -10 31 -14 62 -10 85 5 31 14
41 53 62 127 67 192 105 247 144 53 37 72 56 132 125 19 22 53 118 53 149 -1
74 -66 170 -143 208 -98 49 -247 72 -464 72 -141 0 -144 0 -154 24 -13 28 -6
43 56 125 56 74 69 115 55 175 -6 26 -19 57 -30 68 -11 12 -20 25 -20 29 0 11
-107 81 -171 112 -121 59 -165 69 -319 74 -102 4 -151 9 -165 19 -15 11 -16
17 -7 26 7 7 12 20 12 29 0 10 4 19 8 21 17 6 71 96 97 159 55 135 68 261 35
332 -38 80 -120 111 -214 81z m148 -159 c-1 -92 -5 -122 -27 -183 -79 -220
-259 -382 -455 -408 -46 -6 -50 -5 -55 17 -11 42 -7 133 8 194 56 222 235 413
450 481 79 25 80 24 79 -101z m287 -618 c101 -34 187 -86 256 -154 l58 -56
-46 -41 c-186 -170 -260 -381 -215 -618 8 -40 26 -100 40 -132 15 -33 25 -60
24 -61 -2 0 -32 -20 -68 -43 -255 -163 -683 -296 -1305 -407 -196 -35 -415
-59 -473 -53 -31 3 -36 8 -64 73 -46 108 -86 239 -110 360 -31 155 -31 373 0
499 60 241 197 419 398 517 170 83 299 87 524 20 184 -56 205 -55 365 19 213
99 263 111 420 106 96 -3 135 -8 196 -29z m685 -602 c311 -55 310 -256 -1
-431 -319 -178 -744 -362 -1100 -477 -511 -164 -1258 -287 -1741 -287 -237 0
-370 28 -430 91 -84 87 10 250 226 392 73 48 365 197 385 197 6 0 19 -39 28
-87 l18 -87 -43 -35 c-63 -52 -108 -103 -115 -130 -14 -57 33 -106 131 -137
77 -25 349 -30 502 -10 373 49 908 173 1184 275 207 77 490 243 606 357 45 43
54 58 54 87 0 26 -6 39 -25 51 -32 21 -114 42 -198 51 l-67 7 1 57 c1 31 4 70
8 86 6 27 10 31 56 36 110 13 432 9 521 -6z m-463 -307 c6 -19 -3 -38 -18 -38
-15 0 -28 27 -19 41 8 13 32 11 37 -3z m247 -445 c0 -21 -67 -216 -96 -278
-81 -173 -201 -353 -285 -429 -74 -66 -128 -89 -226 -94 -74 -4 -94 -1 -205
34 -110 35 -134 39 -223 38 -116 0 -156 -11 -305 -82 -217 -104 -329 -90 -496
61 -53 49 -215 235 -236 272 -6 10 12 16 75 24 299 43 656 111 877 168 249 63
616 195 884 315 l100 45 68 -31 c37 -17 67 -36 68 -43z"/>
<path d="M503 3 c9 -2 25 -2 35 0 9 3 1 5 -18 5 -19 0 -27 -2 -17 -5z"/>
<path d="M1018 3 c12 -2 32 -2 45 0 12 2 2 4 -23 4 -25 0 -35 -2 -22 -4z"/>
<path d="M2128 3 c12 -2 32 -2 45 0 12 2 2 4 -23 4 -25 0 -35 -2 -22 -4z"/>
<path d="M2903 3 c37 -2 96 -2 130 0 34 2 4 3 -68 3 -71 0 -99 -1 -62 -3z"/>
<path d="M3733 3 c26 -2 68 -2 95 0 26 2 4 3 -48 3 -52 0 -74 -1 -47 -3z"/>
</g>
</svg>
